<?xml version="1.0" encoding="UTF-8"?>
<svg id="Layer_2" data-name="Layer 2" xmlns="http://www.w3.org/2000/svg" viewBox="0 0 536.79 299.33">
  <defs>
    <style>
      .cls-1 {
        fill: #48f7bd;
      }

      .cls-2 {
        fill: #77e897;
      }

      .cls-3 {
        fill: #2d846b;
      }

      .cls-4 {
        fill: #d8d8d8;
      }

      .cls-5 {
        fill: #22303a;
      }

      .cls-5, .cls-6 {
        opacity: .4;
      }

      .cls-7 {
        fill: #005126;
      }

      .cls-8 {
        fill: #27282b;
      }

      .cls-9 {
        fill: #eac8a0;
      }

      .cls-10 {
        fill: #351c30;
      }

      .cls-6 {
        fill: #e5f2f9;
      }
    </style>
  </defs>
  <g id="Layer_5" data-name="Layer 5">
    <g>
      <rect class="cls-8" x="27.71" width="481.38" height="299.33" rx="82.82" ry="82.82"/>
      <path class="cls-9" d="M164.39,34.71h208.02c56.49,0,102.35,45.86,102.35,102.35v57.57c0,45.71-37.11,82.82-82.82,82.82h-247.07c-45.71,0-82.82-37.11-82.82-82.82v-57.57c0-56.49,45.86-102.35,102.35-102.35Z"/>
      <g>
        <rect class="cls-1" x="335.58" y="112.92" width="34.84" height="98.7" rx="16.94" ry="16.94"/>
        <path class="cls-7" d="M351.15,158.43c7.66,0,14.34,3.05,19.28,7.93v-36.5c0-9.32-7.62-16.94-16.94-16.94h-.97c-9.32,0-16.94,7.62-16.94,16.94v33.49c4.6-3.09,10.04-4.92,15.57-4.92Z"/>
      </g>
      <g>
        <rect class="cls-1" x="174.28" y="112.92" width="34.84" height="98.7" rx="16.94" ry="16.94"/>
        <path class="cls-7" d="M189.85,158.43c7.66,0,14.34,3.05,19.28,7.93v-36.5c0-9.32-7.62-16.94-16.94-16.94h-.97c-9.32,0-16.94,7.62-16.94,16.94v33.49c4.6-3.09,10.04-4.92,15.57-4.92Z"/>
      </g>
      <path class="cls-5" d="M168.34,38.72h208.02c56.49,0,102.35,45.86,102.35,102.35v57.57c0,45.71-37.11,82.82-82.82,82.82h-247.07c-45.71,0-82.82-37.11-82.82-82.82v-57.57c0-56.49,45.86-102.35,102.35-102.35Z"/>
      <path class="cls-4" d="M391.93,283.36h-247.07c-48.92,0-88.73-39.8-88.73-88.73v-57.57c0-59.69,48.56-108.25,108.25-108.25h208.02c59.69,0,108.25,48.56,108.25,108.25v57.57c0,48.92-39.8,88.73-88.73,88.73ZM164.39,40.62c-53.18,0-96.45,43.27-96.45,96.45v57.57c0,42.41,34.51,76.92,76.92,76.92h247.07c42.41,0,76.92-34.51,76.92-76.92v-57.57c0-53.18-43.27-96.45-96.45-96.45h-208.02Z"/>
      <rect class="cls-10" x="174.28" y="95.1" width="47.49" height="14.66" rx="7.33" ry="7.33" transform="translate(62.88 -74.89) rotate(25.34)"/>
      <rect class="cls-10" x="320.66" y="95.1" width="47.49" height="14.66" rx="7.33" ry="7.33" transform="translate(699.51 47.62) rotate(154.66)"/>
      <path class="cls-10" d="M296.26,226.08c-2.07-8.58-9.62-14.33-18.43-14.45-8.87-.12-16.77,5.33-20.6,13.16-1.69,3.45,3.48,6.5,5.18,3.03,2.65-5.42,7.55-9.64,13.77-10.14,6.79-.55,12.7,3.34,14.3,9.99.9,3.75,6.69,2.16,5.79-1.6Z"/>
      <path class="cls-6" d="M438.81,96.75c-5.43-10.81-11.33-22.04-21.08-29.61-9.57-7.43-34.3-18.76-46.2-15.45-10.53,2.93-9.39,18.08,1.17,15.14,17.95-5,45.2,26.04,51.59,38.77,4.91,9.77,19.41.88,14.51-8.86Z"/>
      <path class="cls-6" d="M456.78,128.1c-.46-1.99-1.89-4.19-3.68-5.25-.77-.45-1.6-.81-2.47-1.06-.83-.61-1.77-1.12-2.8-1.51-3.72-1.42-8.24-.6-11.12,2.19-2.09,2.03-3.4,5.24-2.54,8.17,1.19,4.04,4.21,7.59,8.47,8.55,2.1.47,4.19.68,6.31.1,1.01-.28,2.08-.66,2.97-1.22,1.6-1.02,2.51-2,3.73-3.46,1.31-1.58,1.58-4.61,1.14-6.51Z"/>
      <g>
        <path class="cls-2" d="M513.9,87.5h0c-6.6,0-12,5.4-12,12v125.54c0,6.6,5.4,12,12,12h0c12.59,0,22.89-10.3,22.89-22.89v-103.76c0-12.59-10.3-22.89-22.89-22.89Z"/>
        <path class="cls-2" d="M22.89,87.5h0c-12.59,0-22.89,10.3-22.89,22.89v103.76c0,12.59,10.3,22.89,22.89,22.89h0c6.6,0,12-5.4,12-12v-125.54c0-6.6-5.4-12-12-12Z"/>
        <path class="cls-3" d="M532.08,217.38c-2.63-2.03-5.25-4.06-7.88-6.09-8.55-10.59-14.92-22.07-17.17-35.67-2.01-12.19-3.06-24.2-2.52-36.53.74-17.04,2.81-34.49,6.64-51.25-5.29,1.25-9.26,6.01-9.26,11.67v125.54c0,6.6,5.4,12,12,12h0c10.74,0,19.8-7.49,22.24-17.51-1.38-.61-2.74-1.33-4.06-2.17Z"/>
        <path class="cls-3" d="M30.84,90.58c.11,1.27.13,2.52.05,3.7-.05.76-.05,1.46-.02,2.17,2.38,19.57,1.11,38.88-2.04,58.51-.63,3.92-1.38,7.89-2.29,11.82-.77,5.21-1.87,9.54-3.52,17.93-1.94,9.87-9.73,18-17.89,23.26-1.64,1.06-3.35,1.93-5.13,2.64v3.54c0,12.59,10.3,22.89,22.89,22.89h0c6.6,0,12-5.4,12-12v-125.54c0-3.55-1.58-6.73-4.05-8.93Z"/>
      </g>
    </g>
  </g>
</svg>