<?xml version="1.0" encoding="UTF-8"?>
<svg id="Layer_2" data-name="Layer 2" xmlns="http://www.w3.org/2000/svg" viewBox="0 0 536.79 413.36">
  <defs>
    <style>
      .cls-1 {
        fill: #edf0f9;
      }

      .cls-2 {
        fill: #22303a;
      }

      .cls-3 {
        fill: #65c8d0;
      }

      .cls-4 {
        fill: #e27830;
      }

      .cls-5 {
        fill: #a7aec1;
      }

      .cls-6 {
        fill: #5183bf;
      }

      .cls-7 {
        fill: #ffb94a;
      }
    </style>
  </defs>
  <g id="Layer_2-2" data-name="Layer 2">
    <g>
      <g>
        <rect class="cls-1" x="51.18" y="126.42" width="434.44" height="270.15" rx="82.82" ry="82.82"/>
        <rect class="cls-1" x="27.71" y="111.83" width="481.38" height="299.33" rx="82.82" ry="82.82"/>
        <path class="cls-5" d="M504.61,288.43c-.22,4.43-.54,8.86-1.02,13.28-2.7,24.91-8.88,48.42-25.78,67.67-18.39,20.94-46.94,28.19-73.71,29.44-11.61.54-21.03-7.06-25.43-16.97-10.39,2.68-20.99,4.6-31.62,6.08-32.06,4.45-64.2,5.34-96.53,5.73-17.48.21-34.8,1.05-52.24,1.89-21.71,1.04-43.96,1.08-65.29-3.62-10.98-2.42-21.85-7.02-30.36-14.51-7.96-5.09-15.06-11.47-21.27-18.64-1.38.64-2.8,1.2-4.23,1.67-6.75,2.18-15.62.69-21.64-2.83-6.83-4-10.04-9.73-12.91-16.79-10.09-24.82-12.72-51.45-14.86-78.08v67.79c0,45.55,37.27,82.82,82.82,82.82h315.73c45.55,0,82.82-37.27,82.82-82.82v-47.96c-1.45,1.98-2.95,3.93-4.48,5.86Z"/>
        <rect class="cls-1" x="39.74" y="119.31" width="457.31" height="284.37" rx="82.82" ry="82.82"/>
        <path class="cls-3" d="M513.9,195.34h0c-6.6,0-12,5.4-12,12v125.54c0,6.6,5.4,12,12,12h0c12.59,0,22.89-10.3,22.89-22.89v-103.76c0-12.59-10.3-22.89-22.89-22.89Z"/>
        <path class="cls-3" d="M22.89,195.34h0c-12.59,0-22.89,10.3-22.89,22.89v103.76c0,12.59,10.3,22.89,22.89,22.89h0c6.6,0,12-5.4,12-12v-125.54c0-6.6-5.4-12-12-12Z"/>
        <path class="cls-6" d="M532.08,325.21c-2.63-2.03-5.25-4.06-7.88-6.09-8.55-10.59-14.92-22.07-17.17-35.67-2.01-12.19-3.06-24.2-2.52-36.53.74-17.04,2.81-34.49,6.64-51.25-5.29,1.25-9.26,6.01-9.26,11.67v125.54c0,6.6,5.4,12,12,12h0c10.74,0,19.8-7.49,22.24-17.51-1.38-.61-2.74-1.33-4.06-2.17Z"/>
        <path class="cls-6" d="M30.84,198.41c.11,1.27.13,2.52.05,3.7-.05.76-.05,1.46-.02,2.17,2.38,19.57,1.11,38.88-2.04,58.51-.63,3.92-1.38,7.89-2.29,11.82-.77,5.21-1.87,9.54-3.52,17.93-1.94,9.87-9.73,18-17.89,23.26-1.64,1.06-3.35,1.93-5.13,2.64v3.54c0,12.59,10.3,22.89,22.89,22.89h0c6.6,0,12-5.4,12-12v-125.54c0-3.55-1.58-6.73-4.05-8.93Z"/>
      </g>
      <path class="cls-2" d="M167.49,145.81h208.02c56.49,0,102.35,45.86,102.35,102.35v65.59c0,45.71-37.11,82.82-82.82,82.82h-247.07c-45.71,0-82.82-37.11-82.82-82.82v-65.59c0-56.49,45.86-102.35,102.35-102.35Z"/>
      <path class="cls-1" d="M347.83,164.44h-152.71c-15.45,0-29.81-7.94-38.02-21.02l-6.05-9.63c-.57-.91.08-2.1,1.16-2.1h238.11c1.06,0,1.71,1.14,1.18,2.06l-4.86,8.37c-8.04,13.82-22.82,22.33-38.81,22.33Z"/>
      <g>
        <g>
          <rect class="cls-7" x="150.78" y="210.9" width="47.98" height="126.43" rx="23.26" ry="23.26"/>
          <rect class="cls-7" x="344.24" y="210.9" width="47.98" height="126.43" rx="23.26" ry="23.26"/>
        </g>
        <path class="cls-7" d="M304.23,342.44h-64.98c-5.9,0-8.14,7.71-3.15,10.87l14.35,9.1c13,8.24,29.58,8.24,42.58,0l14.35-9.1c4.98-3.16,2.74-10.87-3.15-10.87Z"/>
      </g>
      <g>
        <path class="cls-1" d="M248.93,126.42h36.52s2.76-71.98-18.26-91.27c0,0,11.37,70.23-18.26,91.27Z"/>
        <rect class="cls-3" x="236.46" y="1.73" width="46.99" height="50.99" rx="18.08" ry="18.08" transform="translate(25.83 143.42) rotate(-32.37)"/>
        <path class="cls-6" d="M283.78,20.91l-4.1-6.47c.18,13.5-12.4,24.87-25.54,24.87-8.29,0-15.32-3.92-19.9-9.91.46,1.43,1.08,2.83,1.92,4.15l7.94,12.53c5.32,8.4,16.55,10.91,24.95,5.59l9.15-5.8c8.4-5.32,10.91-16.55,5.59-24.95Z"/>
      </g>
      <g>
        <path class="cls-4" d="M173.78,247.79c11.26,0,20.43,6.58,24.99,15.9v-29.53c0-12.79-10.47-23.26-23.26-23.26h-1.46c-12.79,0-23.26,10.47-23.26,23.26v25.65c5.29-7.2,14.03-12.02,22.99-12.02Z"/>
        <path class="cls-4" d="M368.63,248.78c10.21,0,18.7,5.41,23.59,13.37v-27.98c0-12.79-10.47-23.26-23.26-23.26h-1.46c-12.79,0-23.26,10.47-23.26,23.26v28.72c5.05-8.34,14.58-14.11,24.39-14.11Z"/>
      </g>
    </g>
  </g>
</svg>