<svg xmlns="http://www.w3.org/2000/svg" viewBox="0 0 100 100" width="100" height="100">
  <defs>
    <radialGradient id="pl" cx="45%" cy="40%" r="65%">
      <stop offset="0" stop-color="#ffffff" stop-opacity="0.95"/>
      <stop offset="0.35" stop-color="#ff3366" stop-opacity="0.9"/>
      <stop offset="1" stop-color="#ff3366" stop-opacity="0.15"/>
    </radialGradient>
  </defs>
  <circle cx="50" cy="50" r="40" fill="url(#pl)"/>
  <!-- Heart -->
  <path d="M50 74 C34 62 24 52 24 40 C24 30 32 24 40 24 C45 24 49 27 50 30 C51 27 55 24 60 24 C68 24 76 30 76 40 C76 52 66 62 50 74 Z"
        fill="#0a0a0f" fill-opacity="0.6"/>
  <path d="M50 70 C36 59 28 51 28 41 C28 33 34 28 41 28 C46 28 49 31 50 34 C51 31 54 28 59 28 C66 28 72 33 72 41 C72 51 64 59 50 70 Z"
        fill="#ffffff" fill-opacity="0.45"/>
</svg>
