<svg xmlns="http://www.w3.org/2000/svg" viewBox="0 0 100 100" width="100" height="100">
  <defs>
    <radialGradient id="ps" cx="50%" cy="40%" r="60%">
      <stop offset="0" stop-color="#ffffff" stop-opacity="0.95"/>
      <stop offset="0.35" stop-color="#0088ff" stop-opacity="0.9"/>
      <stop offset="1" stop-color="#0088ff" stop-opacity="0.15"/>
    </radialGradient>
  </defs>
  <circle cx="50" cy="50" r="40" fill="url(#ps)" />
  <path d="M50 18 C64 26 74 32 74 48 C74 66 62 78 50 84 C38 78 26 66 26 48 C26 32 36 26 50 18 Z"
        fill="none" stroke="#ffffff" stroke-opacity="0.7" stroke-width="4"/>
  <path d="M50 28 C60 34 66 38 66 49 C66 61 58 68 50 73 C42 68 34 61 34 49 C34 38 40 34 50 28 Z"
        fill="none" stroke="#0a0a0f" stroke-opacity="0.25" stroke-width="3"/>
</svg>
